<svg xmlns="http://www.w3.org/2000/svg" width="512" height="512" viewBox="0 0 512 512">
  <defs>
    <linearGradient id="bgGrad" x1="0%" y1="0%" x2="100%" y2="100%">
      <stop offset="0%" stop-color="#4f46e5" />
      <stop offset="100%" stop-color="#06b6d4" />
    </linearGradient>
  </defs>

  <!-- Background -->
  <rect width="512" height="512" rx="120" fill="url(#bgGrad)" />

  <!-- Icon Star -->
  <g transform="translate(256,256) scale(14) rotate(-12) translate(-12,-12)">
    <path 
      fill="#ffffff"
      fill-rule="evenodd"
      d="M10.788 3.21c.448-1.077 1.976-1.077 2.424 0l2.082 5.007 
      5.404.433c1.164.093 1.636 1.545.749 2.305l-4.117 3.527 
      1.257 5.273c.271 1.136-.964 2.033-1.96 1.425L12 18.354 
      7.373 21.18c-.996.608-2.231-.29-1.96-1.425l1.257-5.273 
      -4.117-3.527c-.887-.76-.415-2.212.749-2.305l5.404-.433 
      2.082-5.007Zm-7.037 5.25a.75.75 0 0 1 0 1.5H2.25
      a.75.75 0 0 1 0-1.5h1.5Zm0 4.5a.75.75 0 0 1 0 1.5H2.25
      a.75.75 0 0 1 0-1.5h1.5ZM6 17.25a.75.75 0 0 1 0 1.5H2.25
      a.75.75 0 0 1 0-1.5H6Z"
      clip-rule="evenodd"
    />
  </g>
</svg>
